<svg width="133" height="32" viewBox="0 0 133 32" fill="none" xmlns="http://www.w3.org/2000/svg">
<g clip-path="url(#clip0_14480_29769)">
<path fill-rule="evenodd" clip-rule="evenodd" d="M39.8319 19.427C39.8319 23.3147 42.2437 25.9536 45.8605 25.9536C49.4752 25.9536 52.0312 23.2186 52.0312 19.3789C52.0312 15.6355 49.4291 12.8516 45.8605 12.8516C42.292 12.8516 39.8319 15.5393 39.8319 19.427ZM39.9293 9.82795C41.5686 8.05166 44.0763 6.99595 47.0664 6.99595C53.7708 6.99595 58.6456 12.2309 58.6456 19.4285C58.6456 26.6261 53.7746 31.8574 47.0701 31.8574C43.9804 31.8574 41.4244 30.7572 39.7843 28.8337C39.6401 30.6093 38.3376 31.8574 36.6492 31.8574C34.8166 31.8574 33.4182 30.4177 33.4182 28.546V3.45521C33.4182 1.58348 34.8166 0.143066 36.6975 0.143066C38.5309 0.143066 39.9293 1.53539 39.9293 3.45521V9.82795ZM125.245 18.3231L132.094 26.8658C132.625 27.5383 132.866 28.1612 132.866 28.8818C132.866 30.5611 131.56 31.8573 129.925 31.8573C128.911 31.8573 128.139 31.4711 127.513 30.6573L119.361 20.6743C118.637 19.7147 118.348 19.043 118.348 18.3231C118.348 17.5071 118.688 16.8354 119.506 15.9232L127.126 8.0072C127.706 7.36948 128.529 7.00402 129.393 6.99884C131.081 6.99884 132.383 8.2469 132.383 9.87893C132.383 10.6949 132.046 11.4629 131.322 12.1827L125.245 18.3231ZM114.056 0.164574C112.175 0.164574 110.777 1.60499 110.777 3.47671V28.546C110.777 30.4177 112.175 31.8574 114.056 31.8574C115.889 31.8574 117.288 30.4658 117.288 28.546V3.47671C117.288 1.5569 115.937 0.164574 114.056 0.164574ZM91.7574 9.44387C93.4458 7.90802 95.8092 6.99583 98.4618 6.99583H98.464C103.914 6.99583 107.434 10.74 107.434 16.5468V28.5458C107.434 30.4656 106.084 31.8572 104.203 31.8572C102.371 31.8572 100.972 30.4176 100.972 28.5458V17.4109C100.972 14.6751 99.1882 12.8034 96.534 12.8034C93.8799 12.8034 91.999 14.7232 91.999 17.4109V28.5458C91.999 30.4656 90.5998 31.8572 88.7672 31.8572C86.8863 31.8572 85.4879 30.4176 85.4879 28.5458V10.2599C85.4879 8.38815 86.8863 6.99583 88.7189 6.99583C90.214 6.99583 91.4199 8.00419 91.7574 9.44387ZM70.6166 27.1054C68.4948 27.1054 67.1923 26.0978 67.1923 24.5161C67.1923 22.9343 68.3498 22.1161 70.52 22.1161H75.6327V22.4046C75.6327 25.0924 73.4625 27.1076 70.6166 27.1076V27.1054ZM71.8225 6.99583C68.3498 6.99583 65.2154 8.05154 63.1895 9.924C62.3212 10.7378 61.8387 11.6034 61.8387 12.5133C61.8387 13.953 63.0446 15.153 64.6363 15.153C65.263 15.153 65.7938 14.9606 66.5693 14.3851C67.9677 13.1851 69.4628 12.6095 71.1511 12.6095C74.0446 12.6095 75.6364 14.1454 75.6364 16.785V17.8407H69.6561C64.0616 17.8407 60.6373 20.4804 60.6373 24.7521C60.6373 28.9749 63.965 31.8543 68.8844 31.8543C71.7295 31.8543 74.1413 30.9428 75.878 29.3108C76.1672 30.7505 77.4207 31.8062 79.0124 31.8062C80.7967 31.8062 82.1475 30.4627 82.1475 28.591V17.1705C82.1438 10.6949 78.3819 6.99583 71.8225 6.99583ZM24.8462 6.99798C26.5889 7.0002 27.9992 8.40806 27.997 10.1422L28.0007 28.7152C27.9955 30.4486 26.5844 31.852 24.8425 31.8572C23.1006 31.852 21.6896 30.4486 21.6844 28.7152V17.7297L20.3878 19.0199C19.1522 20.2421 17.1567 20.2421 15.9211 19.0199C14.693 17.7904 14.693 15.804 15.9211 14.5744L22.6122 7.91609C23.2047 7.3272 24.0084 6.9965 24.8462 6.99798Z" fill="url(#paint0_linear_14480_29769)"/>
<path fill-rule="evenodd" clip-rule="evenodd" d="M7.33527e-06 10.1425C-0.00370991 8.40842 1.40587 6.99908 3.14851 6.99464C3.98861 6.99242 4.79525 7.3246 5.38927 7.91645L12.0803 14.5748C13.3092 15.8043 13.3092 17.7907 12.0803 19.0203C10.8447 20.2425 8.84854 20.2425 7.61293 19.0203L6.31709 17.7308V28.7155C6.31189 30.4489 4.90082 31.8523 3.15892 31.8575C1.41702 31.8531 0.00521148 30.4489 7.33527e-06 28.7155V10.1425Z" fill="#FABF00"/>
</g>
<defs>
<linearGradient id="paint0_linear_14480_29769" x1="21.5003" y1="29.1421" x2="22.2741" y2="-6.02402" gradientUnits="userSpaceOnUse">
<stop stop-color="#0092A1"/>
<stop offset="1" stop-color="#009C4D"/>
</linearGradient>
<clipPath id="clip0_14480_29769">
<rect width="132.866" height="31.7143" fill="white" transform="translate(0 0.143066)"/>
</clipPath>
</defs>
</svg>
